<?xml version="1.0" standalone="no"?><!DOCTYPE svg PUBLIC "-//W3C//DTD SVG 1.1//EN" "http://www.w3.org/Graphics/SVG/1.1/DTD/svg11.dtd"><svg t="1617496049133" class="icon" viewBox="0 0 1024 1024" version="1.1" xmlns="http://www.w3.org/2000/svg" p-id="1814" xmlns:xlink="http://www.w3.org/1999/xlink" width="32" height="32"><defs><style type="text/css"></style></defs><path d="M213.333333 768a170.666667 170.666667 0 0 1-147.84-256 170.666667 170.666667 0 0 1 295.68-170.666667h301.653334a170.666667 170.666667 0 0 1 295.68 170.666667 170.666667 170.666667 0 0 1-295.68 170.666667h-301.653334A170.666667 170.666667 0 0 1 213.333333 768z m80.469334-142.208L303.872 597.333333h416.256l10.069333 28.458667a85.376 85.376 0 1 0 144.085334-85.333333L848.810667 512l25.472-28.458667a85.333333 85.333333 0 1 0-144.085334-85.333333l-10.069333 28.458667H303.872l-10.069333-28.458667a85.376 85.376 0 1 0-144.085334 85.333333l25.472 28.458667-25.472 28.458667a85.333333 85.333333 0 1 0 144.085334 85.333333z" p-id="1815"></path></svg>